<?xml version="1.0" encoding="UTF-8"?>
<svg width="108px" height="108px" viewBox="0 0 108 108" version="1.1" xmlns="http://www.w3.org/2000/svg" xmlns:xlink="http://www.w3.org/1999/xlink">
    <!-- Generator: Sketch 51.1 (57501) - http://www.bohemiancoding.com/sketch -->
    <title>happycow</title>
    <desc>Created with Sketch.</desc>
    <defs></defs>
    <g id="Page-1" stroke="none" stroke-width="1" fill="none" fill-rule="evenodd">
        <g id="happycow" fill-rule="nonzero">
            <circle id="Oval" fill="#236868" cx="54" cy="54" r="54"></circle>
            <path d="M87.92064,28.85652 C90.35388,45.52524 75.12912,42.68052 75.12912,42.68052 L73.24236,40.37256 L73.25856,40.3488 L71.47116,37.962 C71.47116,37.962 72.37404,22.50072 87.96816,28.87164" id="Shape" fill="#FBC800"></path>
            <path d="M84.672,31.46688 C86.5674,44.44092 74.71656,42.228 74.71656,42.228 L73.24776,40.43088 L73.26072,40.41252 L71.87076,38.556 C71.87076,38.556 72.576,26.52156 84.71088,31.47984" id="Shape" fill="#FFDCDC"></path>
            <path d="M20.07936,28.85652 C17.64612,45.52524 32.87088,42.68052 32.87088,42.68052 L34.75764,40.37256 L34.74144,40.3488 L36.52884,37.962 C36.52884,37.962 35.62596,22.50072 20.03184,28.87164" id="Shape" fill="#FBC800"></path>
            <path d="M23.328,31.46688 C21.4326,44.44092 33.28344,42.228 33.28344,42.228 L34.75224,40.43088 L34.73928,40.41252 L36.12924,38.556 C36.12924,38.556 35.424,26.52156 23.28912,31.47984" id="Shape" fill="#FFDCDC"></path>
            <path d="M72.67752,28.188 L71.99172,33.8202 C71.9453937,34.1965362 71.702062,34.51968 71.3531761,34.6681847 C71.0042902,34.8166895 70.6027096,34.7680552 70.29936,34.54056 L65.76336,31.131 C65.4599568,30.9024934 65.3015757,30.529431 65.3479195,30.1524416 C65.3942634,29.7754522 65.6382855,29.4518579 65.988,29.30364 L71.20872,27.08208 C71.5577574,26.9345696 71.9589338,26.9840683 72.2616483,27.2119946 C72.5643629,27.4399208 72.7228142,27.8117888 72.67752,28.188 Z" id="Shape" fill="#D8D8D8"></path>
            <path d="M35.32248,28.188 L36.00828,33.8202 C36.0546063,34.1965362 36.297938,34.51968 36.6468239,34.6681847 C36.9957098,34.8166895 37.3972904,34.7680552 37.70064,34.54056 L42.23664,31.131 C42.5400432,30.9024934 42.6984243,30.529431 42.6520805,30.1524416 C42.6057366,29.7754522 42.3617145,29.4518579 42.012,29.30364 L36.79128,27.08208 C36.4422426,26.9345696 36.0410662,26.9840683 35.7383517,27.2119946 C35.4356371,27.4399208 35.2771858,27.8117888 35.32248,28.188 Z" id="Shape" fill="#D8D8D8"></path>
            <path d="M54,26.32392 C49.7596439,26.3176063 45.5938996,27.4391815 41.92992,29.57364 C49.4485954,33.8660058 54.0882728,41.8604316 54.08532,50.51808 C54.08532,60.89904 47.52648,69.79824 38.32596,73.14624 L78.0246,73.14624 L78.0246,50.35824 C78.0246,37.0818 67.27104,26.32392 54,26.32392 Z" id="Shape" fill="#FFFFFF"></path>
            <path d="M54.0864,50.46408 C54.0864,41.50008 49.18752,33.70248 41.92668,29.54772 C34.5188621,33.8582492 29.9625536,41.7832477 29.9646,50.35392 L29.9645993,73.03392 L38.32596,73.03392 C47.799962,69.5696001 54.097198,60.5516025 54.0864,50.46408 Z" id="Shape" fill="#FBC800"></path>
            <rect id="Rectangle-path" fill="#FFDCDC" x="27.486" y="62.56008" width="53.028" height="19.116" rx="9.53321364"></rect>
            <circle id="Oval" fill="#E88C8C" cx="63.26856" cy="69.65352" r="2.46456"></circle>
            <circle id="Oval" fill="#E88C8C" cx="44.96256" cy="69.65352" r="2.46456"></circle>
            <rect id="Rectangle-path" fill="#000000" x="56.5596" y="48.57192" width="8.964" height="13.392" rx="4.47037702"></rect>
            <circle id="Oval" fill="#FFFFFF" cx="60.98328" cy="52.84224" r="3.09744"></circle>
            <rect id="Rectangle-path" fill="#000000" x="42.4764" y="48.57192" width="8.964" height="13.392" rx="4.47037702"></rect>
            <circle id="Oval" fill="#FFFFFF" cx="46.899" cy="52.84224" r="3.09744"></circle>
        </g>
    </g>
</svg>